<svg width="30" height="26" viewBox="0 0 30 26" fill="none" xmlns="http://www.w3.org/2000/svg" xmlns:xlink="http://www.w3.org/1999/xlink">
<path d="M15.625,23.661C15.625,24.765 16.52,25.661 17.625,25.661C18.73,25.661 19.625,24.765 19.625,23.661L15.625,23.661ZM19.625,1.161C19.625,0.056 18.73,-0.839 17.625,-0.839C16.52,-0.839 15.625,0.056 15.625,1.161L19.625,1.161ZM19.625,23.661L19.625,1.161L15.625,1.161L15.625,23.661L19.625,23.661Z" transform="rotate(180 17.625 12.411)" fill="#FFFFFF"/>
<path d="M21.366,9.284C22.146,8.502 22.143,7.235 21.36,6.456C20.578,5.677 19.311,5.679 18.532,6.462L21.366,9.284ZM10.913,16.948L9.496,18.36C9.871,18.736 10.381,18.948 10.913,18.948C11.445,18.948 11.955,18.736 12.33,18.359L10.913,16.948ZM3.293,6.462C2.513,5.679 1.247,5.677 0.464,6.456C-0.318,7.236 -0.321,8.502 0.458,9.285L3.293,6.462ZM18.532,6.462L9.496,15.537L12.33,18.359L21.366,9.284L18.532,6.462ZM12.33,15.537L3.293,6.462L0.458,9.285L9.496,18.36L12.33,15.537Z" transform="rotate(180 10.912 12.411)" fill="#FFFFFF"/>
</svg>
