<svg width="116" height="116" viewBox="0 0 116 116" fill="none" xmlns="http://www.w3.org/2000/svg" xmlns:xlink="http://www.w3.org/1999/xlink">
<path d="M70.814,89.048C69.837,88.071 68.254,88.071 67.278,89.048C66.302,90.024 66.302,91.607 67.278,92.583L70.814,89.048ZM76.224,97.993L74.456,99.761C75.432,100.737 77.015,100.737 77.991,99.761L76.224,97.993ZM92.347,85.406C93.323,84.429 93.323,82.846 92.347,81.87C91.371,80.894 89.788,80.894 88.811,81.87L92.347,85.406ZM67.278,92.583L74.456,99.761L77.991,96.226L70.814,89.048L67.278,92.583ZM77.991,99.761L92.347,85.406L88.811,81.87L74.456,96.226L77.991,99.761Z" fill="#00AC4F"/>
<path d="M58.28,52.189L58.031,54.676C58.142,54.687 58.253,54.691 58.365,54.687L58.28,52.189ZM56.722,52.189L56.638,54.687C56.741,54.691 56.845,54.688 56.948,54.678L56.722,52.189ZM36.558,31.269L39.058,31.269L39.058,31.259L36.558,31.269ZM58.529,49.701C57.884,49.637 57.158,49.639 56.495,49.699L56.948,54.678C57.325,54.644 57.732,54.646 58.031,54.676L58.529,49.701ZM56.806,49.69C46.918,49.358 39.058,41.258 39.058,31.269L34.058,31.269C34.058,43.947 44.048,54.264 56.638,54.687L56.806,49.69ZM39.058,31.259C39.016,21.08 47.287,12.803 57.477,12.803L57.477,7.803C44.529,7.803 34.005,18.319 34.058,31.279L39.058,31.259ZM57.477,12.803C67.666,12.803 75.944,21.081 75.944,31.269L80.944,31.269C80.944,18.319 70.428,7.803 57.477,7.803L57.477,12.803ZM75.944,31.269C75.944,41.254 68.041,49.358 58.196,49.69L58.365,54.687C70.903,54.264 80.944,43.951 80.944,31.269L75.944,31.269Z" fill="#00AC4F"/>
<path d="M57.476,106.348C58.857,106.348 59.976,105.229 59.976,103.848C59.976,102.468 58.857,101.348 57.476,101.348L57.476,106.348ZM33.818,97.332L32.427,99.409L32.431,99.412L33.818,97.332ZM33.818,69.612L35.202,71.694L35.208,71.69L33.818,69.612ZM79.697,71.69C80.844,72.458 82.397,72.15 83.165,71.002C83.933,69.855 83.625,68.302 82.477,67.534L79.697,71.69ZM57.476,101.348C49.264,101.348 41.227,99.266 35.204,95.252L32.431,99.412C39.442,104.086 48.499,106.348 57.476,106.348L57.476,101.348ZM35.208,95.254C30.012,91.776 27.747,87.452 27.747,83.454C27.747,79.458 30.01,75.148 35.202,71.694L32.433,67.531C26.197,71.679 22.747,77.404 22.747,83.454C22.747,89.503 26.195,95.238 32.427,99.409L35.208,95.254ZM35.208,71.69C41.204,67.678 49.262,65.596 57.452,65.596C65.643,65.596 73.701,67.678 79.697,71.69L82.477,67.534C75.487,62.857 66.403,60.596 57.452,60.596C48.501,60.596 39.418,62.857 32.427,67.534L35.208,71.69Z" fill="#00AC4F"/>
</svg>
