<svg width="114" height="114" viewBox="0 0 114 114" fill="none" xmlns="http://www.w3.org/2000/svg" xmlns:xlink="http://www.w3.org/1999/xlink">
<path d="M70.29,88.524C69.314,87.548 67.731,87.548 66.754,88.524C65.778,89.5 65.778,91.083 66.754,92.059L70.29,88.524ZM75.7,97.469L73.932,99.237C74.908,100.214 76.491,100.214 77.468,99.237L75.7,97.469ZM91.823,84.882C92.799,83.905 92.799,82.322 91.823,81.346C90.847,80.37 89.264,80.37 88.288,81.346L91.823,84.882ZM66.754,92.059L73.932,99.237L77.468,95.702L70.29,88.524L66.754,92.059ZM77.468,99.237L91.823,84.882L88.288,81.346L73.932,95.702L77.468,99.237Z" fill="#00AC4F"/>
<path d="M57.756,51.665L57.508,54.153C57.618,54.164 57.73,54.167 57.841,54.163L57.756,51.665ZM56.198,51.665L56.114,54.164C56.218,54.167 56.321,54.164 56.424,54.155L56.198,51.665ZM36.034,30.745L38.534,30.745L38.534,30.735L36.034,30.745ZM58.005,49.177C57.36,49.113 56.634,49.115 55.972,49.175L56.424,54.155C56.801,54.12 57.208,54.123 57.508,54.153L58.005,49.177ZM56.282,49.166C46.394,48.834 38.534,40.734 38.534,30.745L33.534,30.745C33.534,43.423 43.524,53.74 56.114,54.164L56.282,49.166ZM38.534,30.735C38.493,20.556 46.763,12.279 56.954,12.279L56.954,7.279C44.005,7.279 33.481,17.796 33.534,30.756L38.534,30.735ZM56.954,12.279C67.142,12.279 75.42,20.557 75.42,30.745L80.42,30.745C80.42,17.795 69.904,7.279 56.954,7.279L56.954,12.279ZM75.42,30.745C75.42,40.73 67.517,48.834 57.672,49.166L57.841,54.163C70.379,53.74 80.42,43.427 80.42,30.745L75.42,30.745Z" fill="#00AC4F"/>
<path d="M56.952,105.825C58.333,105.825 59.452,104.705 59.452,103.325C59.452,101.944 58.333,100.825 56.952,100.825L56.952,105.825ZM33.294,96.808L31.903,98.885L31.907,98.888L33.294,96.808ZM33.294,69.088L34.679,71.17L34.684,71.166L33.294,69.088ZM79.173,71.166C80.321,71.934 81.873,71.626 82.641,70.479C83.409,69.331 83.101,67.778 81.954,67.011L79.173,71.166ZM56.952,100.825C48.74,100.825 40.703,98.743 34.681,94.728L31.907,98.888C38.918,103.562 47.976,105.825 56.952,105.825L56.952,100.825ZM34.685,94.73C29.489,91.252 27.223,86.929 27.223,82.93C27.223,78.934 29.487,74.624 34.679,71.17L31.909,67.007C25.673,71.156 22.223,76.88 22.223,82.93C22.223,88.979 25.671,94.714 31.903,98.885L34.685,94.73ZM34.684,71.166C40.68,67.155 48.738,65.072 56.929,65.072C65.119,65.072 73.177,67.155 79.173,71.166L81.954,67.011C74.963,62.333 65.88,60.072 56.929,60.072C47.977,60.072 38.894,62.333 31.904,67.011L34.684,71.166Z" fill="#00AC4F"/>
</svg>
