<svg width="32" height="30" viewBox="0 0 32 30" fill="none" xmlns="http://www.w3.org/2000/svg" xmlns:xlink="http://www.w3.org/1999/xlink">
<path d="M7,2L25,2L25,-1L7,-1L7,2ZM28,5L28,23L31,23L31,5L28,5ZM25,26L7,26L7,29L25,29L25,26ZM4,23L4,5L1,5L1,23L4,23ZM7,26C5.343,26 4,24.657 4,23L1,23C1,26.314 3.686,29 7,29L7,26ZM28,23C28,24.657 26.657,26 25,26L25,29C28.314,29 31,26.314 31,23L28,23ZM25,2C26.657,2 28,3.343 28,5L31,5C31,1.686 28.314,-1 25,-1L25,2ZM7,-1C3.686,-1 1,1.686 1,5L4,5C4,3.343 5.343,2 7,2L7,-1Z" fill="#000000"/>
</svg>
