<svg width="32" height="32" viewBox="0 0 32 32" fill="none" xmlns="http://www.w3.org/2000/svg" xmlns:xlink="http://www.w3.org/1999/xlink">
<path d="M7,3.2L25,3.2L25,0.2L7,0.2L7,3.2ZM28,6.2L28,24.2L31,24.2L31,6.2L28,6.2ZM25,27.2L7,27.2L7,30.2L25,30.2L25,27.2ZM4,24.2L4,6.2L1,6.2L1,24.2L4,24.2ZM7,27.2C5.343,27.2 4,25.857 4,24.2L1,24.2C1,27.514 3.686,30.2 7,30.2L7,27.2ZM28,24.2C28,25.857 26.657,27.2 25,27.2L25,30.2C28.314,30.2 31,27.514 31,24.2L28,24.2ZM25,3.2C26.657,3.2 28,4.543 28,6.2L31,6.2C31,2.886 28.314,0.2 25,0.2L25,3.2ZM7,0.2C3.686,0.2 1,2.886 1,6.2L4,6.2C4,4.543 5.343,3.2 7,3.2L7,0.2Z" fill="#000000"/>
</svg>
