<svg width="32" height="32" viewBox="0 0 32 32" fill="none" xmlns="http://www.w3.org/2000/svg" xmlns:xlink="http://www.w3.org/1999/xlink">
<path d="M16,32C24.837,32 32,24.837 32,16C32,7.163 24.837,0 16,0C7.163,0 0,7.163 0,16C0,24.837 7.163,32 16,32ZM23.713,12.382C24.2,11.712 24.052,10.774 23.382,10.287C22.712,9.8 21.774,9.948 21.287,10.618L14.319,20.198L10.561,16.439C9.975,15.854 9.025,15.854 8.439,16.439C7.854,17.025 7.854,17.975 8.439,18.561L13.439,23.561C13.75,23.871 14.18,24.03 14.617,23.995C15.055,23.961 15.455,23.737 15.713,23.382L23.713,12.382Z" clip-rule="evenodd" fill-rule="evenodd" fill="#FFFFFF"/>
</svg>
