<svg width="40" height="40" viewBox="0 0 40 40" fill="none" xmlns="http://www.w3.org/2000/svg" xmlns:xlink="http://www.w3.org/1999/xlink">
<path d="M20,0.5C20.828,0.5 21.5,1.172 21.5,2L21.5,25.379L27.939,18.939C28.525,18.354 29.475,18.354 30.061,18.939C30.646,19.525 30.646,20.475 30.061,21.061L21.061,30.061C20.475,30.646 19.525,30.646 18.939,30.061L9.939,21.061C9.354,20.475 9.354,19.525 9.939,18.939C10.525,18.354 11.475,18.354 12.061,18.939L18.5,25.379L18.5,2C18.5,1.172 19.172,0.5 20,0.5ZM2,27.5C2.828,27.5 3.5,28.172 3.5,29L3.5,33.5C3.5,35.157 4.843,36.5 6.5,36.5L33.5,36.5C35.157,36.5 36.5,35.157 36.5,33.5L36.5,29C36.5,28.172 37.172,27.5 38,27.5C38.828,27.5 39.5,28.172 39.5,29L39.5,33.5C39.5,36.814 36.814,39.5 33.5,39.5L6.5,39.5C3.186,39.5 0.5,36.814 0.5,33.5L0.5,29C0.5,28.172 1.172,27.5 2,27.5Z" clip-rule="evenodd" fill-rule="evenodd" fill="#000000"/>
</svg>
