<svg width="50" height="62" viewBox="0 0 50 62" fill="none" xmlns="http://www.w3.org/2000/svg" xmlns:xlink="http://www.w3.org/1999/xlink">
<path d="M11.152,13.125C11.152,5.791 17.098,-0.155 24.432,-0.155C31.766,-0.155 37.712,5.791 37.712,13.125C37.712,20.46 31.766,26.405 24.432,26.405C17.098,26.405 11.152,20.46 11.152,13.125Z" clip-rule="evenodd" fill-rule="evenodd" fill="#FFFFFF"/>
<path d="M0.089,54.752C0.317,41.502 11.128,30.832 24.432,30.832C37.736,30.832 48.547,41.503 48.775,54.753C48.79,55.631 48.284,56.436 47.485,56.802C40.464,60.024 32.655,61.819 24.433,61.819C16.21,61.819 8.4,60.024 1.379,56.802C0.58,56.435 0.074,55.631 0.089,54.752Z" clip-rule="evenodd" fill-rule="evenodd" fill="#FFFFFF"/>
</svg>
