<svg width="182" height="142" viewBox="0 0 182 142" fill="none" xmlns="http://www.w3.org/2000/svg" xmlns:xlink="http://www.w3.org/1999/xlink">
<path d="M0.625,34.125C-0.203,34.125 -0.875,34.797 -0.875,35.625C-0.875,36.453 -0.203,37.125 0.625,37.125L0.625,34.125ZM179.375,37.125C180.203,37.125 180.875,36.453 180.875,35.625C180.875,34.797 180.203,34.125 179.375,34.125L179.375,37.125ZM0.625,41C-0.203,41 -0.875,41.672 -0.875,42.5C-0.875,43.328 -0.203,44 0.625,44L0.625,41ZM179.375,44C180.203,44 180.875,43.328 180.875,42.5C180.875,41.672 180.203,41 179.375,41L179.375,44ZM28.125,89.125C27.297,89.125 26.625,89.797 26.625,90.625C26.625,91.453 27.297,92.125 28.125,92.125L28.125,89.125ZM83.125,92.125C83.953,92.125 84.625,91.453 84.625,90.625C84.625,89.797 83.953,89.125 83.125,89.125L83.125,92.125ZM28.125,109.75C27.297,109.75 26.625,110.422 26.625,111.25C26.625,112.078 27.297,112.75 28.125,112.75L28.125,109.75ZM55.625,112.75C56.453,112.75 57.125,112.078 57.125,111.25C57.125,110.422 56.453,109.75 55.625,109.75L55.625,112.75ZM21.25,2.75L158.75,2.75L158.75,-0.25L21.25,-0.25L21.25,2.75ZM177.875,21.875L177.875,118.125L180.875,118.125L180.875,21.875L177.875,21.875ZM158.75,137.25L21.25,137.25L21.25,140.25L158.75,140.25L158.75,137.25ZM2.125,118.125L2.125,21.875L-0.875,21.875L-0.875,118.125L2.125,118.125ZM21.25,137.25C10.688,137.25 2.125,128.687 2.125,118.125L-0.875,118.125C-0.875,130.344 9.031,140.25 21.25,140.25L21.25,137.25ZM177.875,118.125C177.875,128.687 169.312,137.25 158.75,137.25L158.75,140.25C170.969,140.25 180.875,130.344 180.875,118.125L177.875,118.125ZM158.75,2.75C169.312,2.75 177.875,11.313 177.875,21.875L180.875,21.875C180.875,9.656 170.969,-0.25 158.75,-0.25L158.75,2.75ZM21.25,-0.25C9.031,-0.25 -0.875,9.656 -0.875,21.875L2.125,21.875C2.125,11.313 10.688,2.75 21.25,2.75L21.25,-0.25ZM0.625,37.125L179.375,37.125L179.375,34.125L0.625,34.125L0.625,37.125ZM0.625,44L179.375,44L179.375,41L0.625,41L0.625,44ZM28.125,92.125L83.125,92.125L83.125,89.125L28.125,89.125L28.125,92.125ZM28.125,112.75L55.625,112.75L55.625,109.75L28.125,109.75L28.125,112.75Z" fill="#8688BC"/>
</svg>
