<svg width="136" height="148" viewBox="0 0 136 148" fill="none" xmlns="http://www.w3.org/2000/svg" xmlns:xlink="http://www.w3.org/1999/xlink">
<path d="M68,146L68,144.5L68,144.5L68,146ZM20,146L20,147.5L20,147.5L20,146ZM2,128L3.5,128L2,128ZM2,20L0.5,20L2,20ZM20,2L20,0.5L20,2ZM68,2L68,3.5L68,2ZM86,20L84.5,20L84.5,20L86,20ZM84.5,50C84.5,50.828 85.172,51.5 86,51.5C86.828,51.5 87.5,50.828 87.5,50L84.5,50ZM87.5,98C87.5,97.172 86.828,96.5 86,96.5C85.172,96.5 84.5,97.172 84.5,98L87.5,98ZM86,128L87.5,128L87.5,128L86,128ZM57.061,51.061C57.646,50.475 57.646,49.525 57.061,48.939C56.475,48.354 55.525,48.354 54.939,48.939L57.061,51.061ZM32,74L30.939,72.939C30.354,73.525 30.354,74.475 30.939,75.061L32,74ZM54.939,99.061C55.525,99.646 56.475,99.646 57.061,99.061C57.646,98.475 57.646,97.525 57.061,96.939L54.939,99.061ZM134,75.5C134.828,75.5 135.5,74.828 135.5,74C135.5,73.172 134.828,72.5 134,72.5L134,75.5ZM68,144.5L20,144.5L20,147.5L68,147.5L68,144.5ZM3.5,128L3.5,20L0.5,20L0.5,128L3.5,128ZM20,3.5L68,3.5L68,0.5L20,0.5L20,3.5ZM84.5,20L84.5,50L87.5,50L87.5,20L84.5,20ZM84.5,98L84.5,128L87.5,128L87.5,98L84.5,98ZM3.5,20C3.5,10.887 10.887,3.5 20,3.5L20,0.5C9.23,0.5 0.5,9.23 0.5,20L3.5,20ZM20,144.5C10.887,144.5 3.5,137.113 3.5,128L0.5,128C0.5,138.77 9.23,147.5 20,147.5L20,144.5ZM68,147.5C78.77,147.5 87.5,138.77 87.5,128L84.5,128C84.5,137.113 77.113,144.5 68,144.5L68,147.5ZM68,3.5C77.113,3.5 84.5,10.887 84.5,20L87.5,20C87.5,9.23 78.77,0.5 68,0.5L68,3.5ZM54.939,48.939L30.939,72.939L33.061,75.061L57.061,51.061L54.939,48.939ZM30.939,75.061L54.939,99.061L57.061,96.939L33.061,72.939L30.939,75.061ZM32,75.5L134,75.5L134,72.5L32,72.5L32,75.5Z" fill="#8688BC"/>
</svg>
