<svg width="156" height="140" viewBox="0 0 156 140" fill="none" xmlns="http://www.w3.org/2000/svg" xmlns:xlink="http://www.w3.org/1999/xlink">
<path d="M134.703,19.817L136.137,19.376L136.137,19.376L134.703,19.817ZM153.596,81.217L152.162,81.658L152.162,81.658L153.596,81.217ZM2.404,81.217L3.838,81.658L3.838,81.658L2.404,81.217ZM21.297,19.817L22.73,20.258L22.73,20.258L21.297,19.817ZM54.5,8.875C55.328,8.875 56,8.203 56,7.375C56,6.547 55.328,5.875 54.5,5.875L54.5,8.875ZM101.5,5.875C100.672,5.875 100,6.547 100,7.375C100,8.203 100.672,8.875 101.5,8.875L101.5,5.875ZM1.625,82.25C0.797,82.25 0.125,82.922 0.125,83.75C0.125,84.578 0.797,85.25 1.625,85.25L1.625,82.25ZM154.375,85.25C155.203,85.25 155.875,84.578 155.875,83.75C155.875,82.922 155.203,82.25 154.375,82.25L154.375,85.25ZM47.621,93.493L48.963,92.822L48.963,92.822L47.621,93.493ZM49.629,97.507L48.287,98.178L48.287,98.178L49.629,97.507ZM106.371,97.507L107.713,98.178L107.713,98.178L106.371,97.507ZM108.379,93.493L107.037,92.822L107.037,92.822L108.379,93.493ZM79.5,1.5C79.5,0.672 78.828,0 78,0C77.172,0 76.5,0.672 76.5,1.5L79.5,1.5ZM78,66.125L76.939,67.186C77.525,67.771 78.475,67.771 79.061,67.186L78,66.125ZM55.561,41.564C54.975,40.979 54.025,40.979 53.439,41.564C52.854,42.15 52.854,43.1 53.439,43.686L55.561,41.564ZM102.561,43.686C103.146,43.1 103.146,42.15 102.561,41.564C101.975,40.979 101.025,40.979 100.439,41.564L102.561,43.686ZM136.75,135.125L19.25,135.125L19.25,138.125L136.75,138.125L136.75,135.125ZM133.27,20.258L152.162,81.658L155.029,80.776L136.137,19.376L133.27,20.258ZM152.875,86.4L152.875,119L155.875,119L155.875,86.4L152.875,86.4ZM3.125,119L3.125,86.4L0.125,86.4L0.125,119L3.125,119ZM3.838,81.658L22.73,20.258L19.863,19.376L0.971,80.776L3.838,81.658ZM38.142,8.875L54.5,8.875L54.5,5.875L38.142,5.875L38.142,8.875ZM101.5,8.875L117.858,8.875L117.858,5.875L101.5,5.875L101.5,8.875ZM3.125,86.4C3.125,84.793 3.365,83.194 3.838,81.658L0.971,80.776C0.41,82.598 0.125,84.494 0.125,86.4L3.125,86.4ZM152.162,81.658C152.635,83.194 152.875,84.793 152.875,86.4L155.875,86.4C155.875,84.494 155.59,82.598 155.029,80.776L152.162,81.658ZM19.25,135.125C10.344,135.125 3.125,127.906 3.125,119L0.125,119C0.125,129.562 8.688,138.125 19.25,138.125L19.25,135.125ZM136.75,138.125C147.312,138.125 155.875,129.562 155.875,119L152.875,119C152.875,127.906 145.656,135.125 136.75,135.125L136.75,138.125ZM136.137,19.376C133.668,11.351 126.254,5.875 117.858,5.875L117.858,8.875C124.937,8.875 131.188,13.492 133.27,20.258L136.137,19.376ZM22.73,20.258C24.812,13.492 31.063,8.875 38.142,8.875L38.142,5.875C29.746,5.875 22.332,11.351 19.863,19.376L22.73,20.258ZM1.625,85.25L31.857,85.25L31.857,82.25L1.625,82.25L1.625,85.25ZM124.143,85.25L154.375,85.25L154.375,82.25L124.143,82.25L124.143,85.25ZM46.28,94.164L48.287,98.178L50.97,96.836L48.963,92.822L46.28,94.164ZM65.393,108.75L90.607,108.75L90.607,105.75L65.393,105.75L65.393,108.75ZM107.713,98.178L109.72,94.164L107.037,92.822L105.03,96.836L107.713,98.178ZM90.607,108.75C97.851,108.75 104.473,104.657 107.713,98.178L105.03,96.836C102.298,102.299 96.715,105.75 90.607,105.75L90.607,108.75ZM48.287,98.178C51.527,104.657 58.149,108.75 65.393,108.75L65.393,105.75C59.285,105.75 53.702,102.299 50.97,96.836L48.287,98.178ZM124.143,82.25C116.899,82.25 110.277,86.343 107.037,92.822L109.72,94.164C112.452,88.701 118.035,85.25 124.143,85.25L124.143,82.25ZM31.857,85.25C37.965,85.25 43.548,88.701 46.28,94.164L48.963,92.822C45.723,86.343 39.101,82.25 31.857,82.25L31.857,85.25ZM76.5,1.5L76.5,66.125L79.5,66.125L79.5,1.5L76.5,1.5ZM53.439,43.686L76.939,67.186L79.061,65.064L55.561,41.564L53.439,43.686ZM79.061,67.186L102.561,43.686L100.439,41.564L76.939,65.064L79.061,67.186Z" fill="#8688BC"/>
</svg>
