<svg width="34" height="34" viewBox="0 0 34 34" fill="none" xmlns="http://www.w3.org/2000/svg" xmlns:xlink="http://www.w3.org/1999/xlink">
<path d="M17.5,1C17.5,0.172 16.828,-0.5 16,-0.5C15.172,-0.5 14.5,0.172 14.5,1L17.5,1ZM14.5,31C14.5,31.828 15.172,32.5 16,32.5C16.828,32.5 17.5,31.828 17.5,31L14.5,31ZM31,17.5C31.828,17.5 32.5,16.828 32.5,16C32.5,15.172 31.828,14.5 31,14.5L31,17.5ZM1,14.5C0.172,14.5 -0.5,15.172 -0.5,16C-0.5,16.828 0.172,17.5 1,17.5L1,14.5ZM14.5,1L14.5,31L17.5,31L17.5,1L14.5,1ZM31,14.5L1,14.5L1,17.5L31,17.5L31,14.5Z" fill="#000000"/>
</svg>
