<svg width="126" height="162" viewBox="0 0 126 162" fill="none" xmlns="http://www.w3.org/2000/svg" xmlns:xlink="http://www.w3.org/1999/xlink">
<path d="M2.384,146.622L0.884,146.597C0.874,147.192 1.217,147.737 1.759,147.986L2.384,146.622ZM123.616,146.625L124.241,147.988C124.783,147.74 125.126,147.195 125.116,146.599L123.616,146.625ZM91.813,32.5C91.813,48.413 78.913,61.313 63,61.313L63,64.313C80.57,64.313 94.813,50.07 94.813,32.5L91.813,32.5ZM63,61.313C47.087,61.313 34.188,48.413 34.188,32.5L31.188,32.5C31.188,50.07 45.43,64.313 63,64.313L63,61.313ZM34.188,32.5C34.188,16.587 47.087,3.688 63,3.688L63,0.688C45.43,0.688 31.188,14.93 31.188,32.5L34.188,32.5ZM63,3.688C78.913,3.688 91.813,16.587 91.813,32.5L94.813,32.5C94.813,14.93 80.57,0.688 63,0.688L63,3.688ZM3.884,146.648C4.438,114.474 30.693,88.563 63,88.563L63,85.563C29.054,85.563 1.467,112.789 0.884,146.597L3.884,146.648ZM63,88.563C95.308,88.563 121.563,114.476 122.116,146.651L125.116,146.599C124.535,112.79 96.947,85.563 63,85.563L63,88.563ZM122.99,145.262C104.73,153.64 84.414,158.313 63.003,158.313L63.003,161.313C84.854,161.313 105.597,156.544 124.241,147.988L122.99,145.262ZM63.003,158.313C41.589,158.313 21.272,153.64 3.01,145.259L1.759,147.986C20.405,156.543 41.149,161.313 63.003,161.313L63.003,158.313Z" fill="#8688BC"/>
</svg>
