<svg width="44" height="34" viewBox="0 0 44 34" fill="none" xmlns="http://www.w3.org/2000/svg" xmlns:xlink="http://www.w3.org/1999/xlink">
<path d="M26.5,8.5L26.5,7C25.672,7 25,7.672 25,8.5L26.5,8.5ZM26.515,8.5L28.015,8.5C28.015,7.672 27.343,7 26.515,7L26.515,8.5ZM26.515,8.515L26.515,10.015C27.343,10.015 28.015,9.343 28.015,8.515L26.515,8.515ZM26.5,8.515L25,8.515C25,9.343 25.672,10.015 26.5,10.015L26.5,8.515ZM1.439,22.439C0.854,23.025 0.854,23.975 1.439,24.561C2.025,25.146 2.975,25.146 3.561,24.561L1.439,22.439ZM12.818,13.182L13.879,14.243L13.879,14.243L12.818,13.182ZM19.182,13.182L18.121,14.243L18.121,14.243L19.182,13.182ZM28.439,24.561C29.025,25.146 29.975,25.146 30.561,24.561C31.146,23.975 31.146,23.025 30.561,22.439L28.439,24.561ZM25.439,19.439C24.854,20.025 24.854,20.975 25.439,21.561C26.025,22.146 26.975,22.146 27.561,21.561L25.439,19.439ZM29.318,17.682L28.257,16.621L28.257,16.621L29.318,17.682ZM35.682,17.682L36.743,16.621L36.743,16.621L35.682,17.682ZM40.439,24.561C41.025,25.146 41.975,25.146 42.561,24.561C43.146,23.975 43.146,23.025 42.561,22.439L40.439,24.561ZM5.5,2.5L38.5,2.5L38.5,-0.5L5.5,-0.5L5.5,2.5ZM40,4L40,28L43,28L43,4L40,4ZM38.5,29.5L5.5,29.5L5.5,32.5L38.5,32.5L38.5,29.5ZM4,28L4,4L1,4L1,28L4,28ZM5.5,29.5C4.672,29.5 4,28.828 4,28L1,28C1,30.485 3.015,32.5 5.5,32.5L5.5,29.5ZM40,28C40,28.828 39.328,29.5 38.5,29.5L38.5,32.5C40.985,32.5 43,30.485 43,28L40,28ZM38.5,2.5C39.328,2.5 40,3.172 40,4L43,4C43,1.515 40.985,-0.5 38.5,-0.5L38.5,2.5ZM5.5,-0.5C3.015,-0.5 1,1.515 1,4L4,4C4,3.172 4.672,2.5 5.5,2.5L5.5,-0.5ZM26.5,10L26.515,10L26.515,7L26.5,7L26.5,10ZM25.015,8.5L25.015,8.515L28.015,8.515L28.015,8.5L25.015,8.5ZM26.515,7.015L26.5,7.015L26.5,10.015L26.515,10.015L26.515,7.015ZM28,8.515L28,8.5L25,8.5L25,8.515L28,8.515ZM3.561,24.561L13.879,14.243L11.757,12.121L1.439,22.439L3.561,24.561ZM18.121,14.243L28.439,24.561L30.561,22.439L20.243,12.121L18.121,14.243ZM13.879,14.243C15.05,13.071 16.95,13.071 18.121,14.243L20.243,12.121C17.899,9.778 14.101,9.778 11.757,12.121L13.879,14.243ZM27.561,21.561L30.379,18.743L28.257,16.621L25.439,19.439L27.561,21.561ZM34.621,18.743L40.439,24.561L42.561,22.439L36.743,16.621L34.621,18.743ZM30.379,18.743C31.55,17.571 33.45,17.571 34.621,18.743L36.743,16.621C34.399,14.278 30.601,14.278 28.257,16.621L30.379,18.743ZM25.75,8.5C25.75,8.086 26.086,7.75 26.5,7.75L26.5,10.75C27.743,10.75 28.75,9.743 28.75,8.5L25.75,8.5ZM26.5,7.75C26.914,7.75 27.25,8.086 27.25,8.5L24.25,8.5C24.25,9.743 25.257,10.75 26.5,10.75L26.5,7.75ZM27.25,8.5C27.25,8.914 26.914,9.25 26.5,9.25L26.5,6.25C25.257,6.25 24.25,7.257 24.25,8.5L27.25,8.5ZM26.5,9.25C26.086,9.25 25.75,8.914 25.75,8.5L28.75,8.5C28.75,7.257 27.743,6.25 26.5,6.25L26.5,9.25Z" fill="#000000"/>
</svg>
