<svg width="50" height="64" viewBox="0 0 50 64" fill="none" xmlns="http://www.w3.org/2000/svg" xmlns:xlink="http://www.w3.org/1999/xlink">
<path d="M11.152,13.525C11.152,6.191 17.098,0.245 24.432,0.245C31.766,0.245 37.712,6.191 37.712,13.525C37.712,20.86 31.766,26.805 24.432,26.805C17.098,26.805 11.152,20.86 11.152,13.525Z" clip-rule="evenodd" fill-rule="evenodd" fill="#FFFFFF"/>
<path d="M0.089,55.152C0.317,41.902 11.128,31.232 24.432,31.232C37.736,31.232 48.547,41.903 48.775,55.153C48.79,56.031 48.284,56.836 47.485,57.202C40.464,60.424 32.655,62.219 24.433,62.219C16.21,62.219 8.4,60.424 1.379,57.202C0.58,56.835 0.074,56.031 0.089,55.152Z" clip-rule="evenodd" fill-rule="evenodd" fill="#FFFFFF"/>
</svg>
