<svg width="50" height="64" viewBox="0 0 50 64" fill="none" xmlns="http://www.w3.org/2000/svg" xmlns:xlink="http://www.w3.org/1999/xlink">
<path d="M11.152,13.925C11.152,6.591 17.098,0.645 24.432,0.645C31.766,0.645 37.712,6.591 37.712,13.925C37.712,21.26 31.766,27.205 24.432,27.205C17.098,27.205 11.152,21.26 11.152,13.925Z" clip-rule="evenodd" fill-rule="evenodd" fill="#FFFFFF"/>
<path d="M0.089,55.552C0.317,42.302 11.128,31.632 24.432,31.632C37.736,31.632 48.547,42.303 48.775,55.553C48.79,56.431 48.284,57.236 47.485,57.602C40.464,60.824 32.655,62.619 24.433,62.619C16.21,62.619 8.4,60.824 1.379,57.602C0.58,57.235 0.074,56.431 0.089,55.552Z" clip-rule="evenodd" fill-rule="evenodd" fill="#FFFFFF"/>
</svg>
