<svg width="42" height="34" viewBox="0 0 42 34" fill="none" xmlns="http://www.w3.org/2000/svg" xmlns:xlink="http://www.w3.org/1999/xlink">
<path d="M24.5,8.5L24.5,7C23.672,7 23,7.672 23,8.5L24.5,8.5ZM24.515,8.5L26.015,8.5C26.015,7.672 25.343,7 24.515,7L24.515,8.5ZM24.515,8.515L24.515,10.015C25.343,10.015 26.015,9.343 26.015,8.515L24.515,8.515ZM24.5,8.515L23,8.515C23,9.343 23.672,10.015 24.5,10.015L24.5,8.515ZM-0.561,22.439C-1.146,23.025 -1.146,23.975 -0.561,24.561C0.025,25.146 0.975,25.146 1.561,24.561L-0.561,22.439ZM10.818,13.182L11.879,14.243L11.879,14.243L10.818,13.182ZM17.182,13.182L16.121,14.243L16.121,14.243L17.182,13.182ZM26.439,24.561C27.025,25.146 27.975,25.146 28.561,24.561C29.146,23.975 29.146,23.025 28.561,22.439L26.439,24.561ZM23.439,19.439C22.854,20.025 22.854,20.975 23.439,21.561C24.025,22.146 24.975,22.146 25.561,21.561L23.439,19.439ZM27.318,17.682L26.257,16.621L26.257,16.621L27.318,17.682ZM33.682,17.682L34.743,16.621L34.743,16.621L33.682,17.682ZM38.439,24.561C39.025,25.146 39.975,25.146 40.561,24.561C41.146,23.975 41.146,23.025 40.561,22.439L38.439,24.561ZM3.5,2.5L36.5,2.5L36.5,-0.5L3.5,-0.5L3.5,2.5ZM38,4L38,28L41,28L41,4L38,4ZM36.5,29.5L3.5,29.5L3.5,32.5L36.5,32.5L36.5,29.5ZM2,28L2,4L-1,4L-1,28L2,28ZM3.5,29.5C2.672,29.5 2,28.828 2,28L-1,28C-1,30.485 1.015,32.5 3.5,32.5L3.5,29.5ZM38,28C38,28.828 37.328,29.5 36.5,29.5L36.5,32.5C38.985,32.5 41,30.485 41,28L38,28ZM36.5,2.5C37.328,2.5 38,3.172 38,4L41,4C41,1.515 38.985,-0.5 36.5,-0.5L36.5,2.5ZM3.5,-0.5C1.015,-0.5 -1,1.515 -1,4L2,4C2,3.172 2.672,2.5 3.5,2.5L3.5,-0.5ZM24.5,10L24.515,10L24.515,7L24.5,7L24.5,10ZM23.015,8.5L23.015,8.515L26.015,8.515L26.015,8.5L23.015,8.5ZM24.515,7.015L24.5,7.015L24.5,10.015L24.515,10.015L24.515,7.015ZM26,8.515L26,8.5L23,8.5L23,8.515L26,8.515ZM1.561,24.561L11.879,14.243L9.757,12.121L-0.561,22.439L1.561,24.561ZM16.121,14.243L26.439,24.561L28.561,22.439L18.243,12.121L16.121,14.243ZM11.879,14.243C13.05,13.071 14.95,13.071 16.121,14.243L18.243,12.121C15.899,9.778 12.101,9.778 9.757,12.121L11.879,14.243ZM25.561,21.561L28.379,18.743L26.257,16.621L23.439,19.439L25.561,21.561ZM32.621,18.743L38.439,24.561L40.561,22.439L34.743,16.621L32.621,18.743ZM28.379,18.743C29.55,17.571 31.45,17.571 32.621,18.743L34.743,16.621C32.399,14.278 28.601,14.278 26.257,16.621L28.379,18.743ZM23.75,8.5C23.75,8.086 24.086,7.75 24.5,7.75L24.5,10.75C25.743,10.75 26.75,9.743 26.75,8.5L23.75,8.5ZM24.5,7.75C24.914,7.75 25.25,8.086 25.25,8.5L22.25,8.5C22.25,9.743 23.257,10.75 24.5,10.75L24.5,7.75ZM25.25,8.5C25.25,8.914 24.914,9.25 24.5,9.25L24.5,6.25C23.257,6.25 22.25,7.257 22.25,8.5L25.25,8.5ZM24.5,9.25C24.086,9.25 23.75,8.914 23.75,8.5L26.75,8.5C26.75,7.257 25.743,6.25 24.5,6.25L24.5,9.25Z" fill="#000000"/>
</svg>
