<svg width="44" height="34" viewBox="0 0 44 34" fill="none" xmlns="http://www.w3.org/2000/svg" xmlns:xlink="http://www.w3.org/1999/xlink">
<path d="M26,9.5L26,8C25.172,8 24.5,8.672 24.5,9.5L26,9.5ZM26.015,9.5L27.515,9.5C27.515,8.672 26.843,8 26.015,8L26.015,9.5ZM26.015,9.515L26.015,11.015C26.843,11.015 27.515,10.343 27.515,9.515L26.015,9.515ZM26,9.515L24.5,9.515C24.5,10.343 25.172,11.015 26,11.015L26,9.515ZM0.939,23.439C0.354,24.025 0.354,24.975 0.939,25.561C1.525,26.146 2.475,26.146 3.061,25.561L0.939,23.439ZM12.318,14.182L13.379,15.243L13.379,15.243L12.318,14.182ZM18.682,14.182L17.621,15.243L17.621,15.243L18.682,14.182ZM27.939,25.561C28.525,26.146 29.475,26.146 30.061,25.561C30.646,24.975 30.646,24.025 30.061,23.439L27.939,25.561ZM24.939,20.439C24.354,21.025 24.354,21.975 24.939,22.561C25.525,23.146 26.475,23.146 27.061,22.561L24.939,20.439ZM28.818,18.682L27.757,17.621L27.757,17.621L28.818,18.682ZM35.182,18.682L36.243,17.621L36.243,17.621L35.182,18.682ZM39.939,25.561C40.525,26.146 41.475,26.146 42.061,25.561C42.646,24.975 42.646,24.025 42.061,23.439L39.939,25.561ZM5,3.5L38,3.5L38,0.5L5,0.5L5,3.5ZM39.5,5L39.5,29L42.5,29L42.5,5L39.5,5ZM38,30.5L5,30.5L5,33.5L38,33.5L38,30.5ZM3.5,29L3.5,5L0.5,5L0.5,29L3.5,29ZM5,30.5C4.172,30.5 3.5,29.828 3.5,29L0.5,29C0.5,31.485 2.515,33.5 5,33.5L5,30.5ZM39.5,29C39.5,29.828 38.828,30.5 38,30.5L38,33.5C40.485,33.5 42.5,31.485 42.5,29L39.5,29ZM38,3.5C38.828,3.5 39.5,4.172 39.5,5L42.5,5C42.5,2.515 40.485,0.5 38,0.5L38,3.5ZM5,0.5C2.515,0.5 0.5,2.515 0.5,5L3.5,5C3.5,4.172 4.172,3.5 5,3.5L5,0.5ZM26,11L26.015,11L26.015,8L26,8L26,11ZM24.515,9.5L24.515,9.515L27.515,9.515L27.515,9.5L24.515,9.5ZM26.015,8.015L26,8.015L26,11.015L26.015,11.015L26.015,8.015ZM27.5,9.515L27.5,9.5L24.5,9.5L24.5,9.515L27.5,9.515ZM3.061,25.561L13.379,15.243L11.257,13.121L0.939,23.439L3.061,25.561ZM17.621,15.243L27.939,25.561L30.061,23.439L19.743,13.121L17.621,15.243ZM13.379,15.243C14.55,14.071 16.45,14.071 17.621,15.243L19.743,13.121C17.399,10.778 13.601,10.778 11.257,13.121L13.379,15.243ZM27.061,22.561L29.879,19.743L27.757,17.621L24.939,20.439L27.061,22.561ZM34.121,19.743L39.939,25.561L42.061,23.439L36.243,17.621L34.121,19.743ZM29.879,19.743C31.05,18.571 32.95,18.571 34.121,19.743L36.243,17.621C33.899,15.278 30.101,15.278 27.757,17.621L29.879,19.743ZM25.25,9.5C25.25,9.086 25.586,8.75 26,8.75L26,11.75C27.243,11.75 28.25,10.743 28.25,9.5L25.25,9.5ZM26,8.75C26.414,8.75 26.75,9.086 26.75,9.5L23.75,9.5C23.75,10.743 24.757,11.75 26,11.75L26,8.75ZM26.75,9.5C26.75,9.914 26.414,10.25 26,10.25L26,7.25C24.757,7.25 23.75,8.257 23.75,9.5L26.75,9.5ZM26,10.25C25.586,10.25 25.25,9.914 25.25,9.5L28.25,9.5C28.25,8.257 27.243,7.25 26,7.25L26,10.25Z" fill="#000000"/>
</svg>
