<svg width="50" height="62" viewBox="0 0 50 62" fill="none" xmlns="http://www.w3.org/2000/svg" xmlns:xlink="http://www.w3.org/1999/xlink">
<path d="M11.152,12.725C11.152,5.391 17.098,-0.555 24.432,-0.555C31.766,-0.555 37.712,5.391 37.712,12.725C37.712,20.06 31.766,26.005 24.432,26.005C17.098,26.005 11.152,20.06 11.152,12.725Z" clip-rule="evenodd" fill-rule="evenodd" fill="#FFFFFF"/>
<path d="M0.089,54.352C0.317,41.102 11.128,30.432 24.432,30.432C37.736,30.432 48.547,41.103 48.775,54.353C48.79,55.231 48.284,56.036 47.485,56.402C40.464,59.624 32.655,61.419 24.433,61.419C16.21,61.419 8.4,59.624 1.379,56.402C0.58,56.035 0.074,55.231 0.089,54.352Z" clip-rule="evenodd" fill-rule="evenodd" fill="#FFFFFF"/>
</svg>
