<svg width="420" height="422" viewBox="0 0 420 422" fill="none" xmlns="http://www.w3.org/2000/svg" xmlns:xlink="http://www.w3.org/1999/xlink">
<path d="M415.708,254.882C411.72,248.234 395.342,228.496 352.034,253.684L275.392,298.268C271.446,300.562 267.354,302.172 263.064,303.106C264.676,300.614 265.932,297.772 266.78,294.61C270.67,280.106 262.036,264.966 247.124,260.138C246.84,260.048 246.552,259.974 246.26,259.922C224.218,255.952 202.472,248.098 184.999,241.79C178.929,239.598 173.195,237.528 168.322,235.95C148.76,229.612 131.077,237.466 116.358,245.984L59.175,279.072L54.954,271.624C52.607,267.482 48.774,264.498 44.162,263.22C39.55,261.944 34.725,262.532 30.578,264.876L9.073,277.03C0.49,281.882 -2.541,292.802 2.317,301.374L65.537,412.938C67.884,417.08 71.717,420.064 76.33,421.34C77.925,421.782 79.546,422 81.154,422C84.198,422 87.201,421.218 89.913,419.684L111.417,407.53C115.564,405.186 118.553,401.358 119.831,396.752C121.11,392.144 120.521,387.326 118.173,383.186L110.294,369.282L123.534,361.648L221.776,387.938C227.302,389.416 232.728,390.156 238.034,390.156C248.614,390.154 258.73,387.22 268.248,381.368L407.336,295.834C419.928,288.092 423.918,268.572 415.708,254.882ZM107.105,393.23C106.945,393.822 106.669,394.376 106.292,394.862C105.916,395.346 105.447,395.752 104.913,396.054L83.409,408.21C82.874,408.512 82.284,408.704 81.674,408.776C81.064,408.85 80.446,408.8 79.855,408.632C79.262,408.474 78.707,408.198 78.221,407.822C77.736,407.446 77.33,406.978 77.027,406.444L13.807,294.88C13.197,293.8 13.04,292.522 13.372,291.328C13.704,290.132 14.497,289.118 15.576,288.506L37.081,276.352C37.775,275.96 38.559,275.752 39.356,275.752C39.782,275.752 40.211,275.812 40.635,275.928C41.228,276.088 41.783,276.364 42.268,276.74C42.753,277.116 43.159,277.584 43.462,278.118L106.683,389.682C106.985,390.216 107.178,390.804 107.25,391.414C107.323,392.022 107.274,392.64 107.105,393.23ZM400.414,284.606L261.326,370.14C250.248,376.95 238.092,378.654 225.194,375.202L124.31,348.204C123.472,347.98 122.599,347.922 121.739,348.034C120.88,348.148 120.051,348.43 119.3,348.864L103.79,357.806L65.677,290.55L122.976,257.394C135.79,249.978 149.662,243.768 164.247,248.496C168.912,250.006 174.286,251.946 180.508,254.192C198.326,260.626 220.47,268.62 243.44,272.814C251.558,275.638 256.098,283.472 254.024,291.198C251.5,300.604 244.052,302.382 237.63,301.988C225.064,299.544 213.768,296.344 201.928,292.99C196.838,291.55 191.574,290.058 186.039,288.578C184.348,288.124 182.546,288.362 181.029,289.236C179.513,290.11 178.406,291.55 177.953,293.24C177.5,294.928 177.737,296.728 178.613,298.244C179.488,299.758 180.93,300.862 182.622,301.316C188.064,302.772 193.28,304.25 198.324,305.678C209.59,308.868 220.374,311.924 232.316,314.376C232.922,314.648 233.564,314.828 234.224,314.908C234.774,314.976 235.318,315.032 235.86,315.078C238.402,315.564 240.95,316.012 243.504,316.42C257.71,318.688 270.314,316.478 282.034,309.664L358.678,265.08C380.846,252.186 397.93,250.908 404.378,261.66C408.83,269.08 406.828,280.66 400.414,284.606ZM42.154,295.842C42.3,296.838 42.248,297.854 42.001,298.83C41.753,299.806 41.316,300.724 40.714,301.532C40.112,302.338 39.356,303.02 38.49,303.536C37.624,304.052 36.665,304.392 35.667,304.538C34.669,304.684 33.653,304.632 32.675,304.384C31.698,304.138 30.779,303.7 29.97,303.1C29.162,302.498 28.48,301.742 27.963,300.878C27.447,300.014 27.106,299.056 26.96,298.058C26.666,296.046 27.184,294 28.4,292.37C29.617,290.738 31.432,289.658 33.447,289.364C35.462,289.07 37.511,289.586 39.144,290.802C40.777,292.016 41.86,293.83 42.154,295.842ZM179.506,126.576C179.111,124.889 179.396,123.115 180.301,121.636C181.205,120.158 182.655,119.094 184.338,118.675C186.021,118.256 187.802,118.515 189.295,119.396C190.789,120.278 191.875,121.711 192.319,123.385C194.538,132.28 203.664,135.228 210.826,135.065C217.054,134.917 222.862,132.763 225.62,129.576C227.156,127.803 227.724,125.763 227.408,123.157C226.882,118.836 224.316,113.554 209.002,111.043C187.312,107.487 182.25,96.27 181.823,87.486C181.231,75.332 189.68,65.161 202.85,62.177C203.032,62.136 203.216,62.102 203.4,62.064L203.4,57.348C203.4,55.6 204.096,53.922 205.334,52.686C206.572,51.449 208.252,50.755 210.002,50.755C211.754,50.755 213.432,51.449 214.672,52.686C215.91,53.922 216.604,55.6 216.604,57.348L216.604,62.003C225.388,63.729 233.846,69.121 238.198,79.472C238.876,81.084 238.884,82.899 238.222,84.518C237.56,86.137 236.282,87.426 234.668,88.104C233.054,88.781 231.236,88.789 229.614,88.128C227.994,87.467 226.702,86.189 226.024,84.577C222.278,75.668 213.16,73.364 205.77,75.038C200.352,76.266 194.68,80.012 195.012,86.847C195.126,89.201 195.43,95.453 211.142,98.03C229.092,100.974 238.974,108.893 240.516,121.568C241.28,127.86 239.584,133.612 235.608,138.203C231.336,143.138 224.464,146.543 216.606,147.763L216.606,152.265C216.606,154.014 215.91,155.691 214.672,156.927C213.434,158.164 211.754,158.859 210.004,158.859C208.252,158.859 206.574,158.164 205.336,156.927C204.096,155.691 203.402,154.014 203.402,152.265L203.402,147.66C191.461,145.495 182.265,137.623 179.506,126.576ZM210.002,186.397C255.05,186.397 291.698,149.796 291.698,104.807C291.698,59.819 255.05,23.217 210.002,23.217C164.956,23.217 128.307,59.819 128.307,104.807C128.307,149.796 164.956,186.397 210.002,186.397ZM210.002,36.404C247.768,36.404 278.494,67.09 278.494,104.807C278.494,142.524 247.768,173.21 210.002,173.21C172.237,173.21 141.512,142.524 141.512,104.807C141.512,67.09 172.237,36.404 210.002,36.404ZM210.002,209.614C267.868,209.614 314.944,162.599 314.944,104.807C314.944,47.016 267.868,0 210.002,0C152.137,0 105.06,47.016 105.06,104.807C105.06,162.598 152.137,209.614 210.002,209.614ZM210.002,13.187C260.588,13.187 301.74,54.288 301.74,104.807C301.74,155.327 260.588,196.428 210.002,196.428C159.418,196.428 118.265,155.327 118.265,104.807C118.265,54.288 159.418,13.187 210.002,13.187Z" fill="#8688BC"/>
</svg>
