<svg width="50" height="62" viewBox="0 0 50 62" fill="none" xmlns="http://www.w3.org/2000/svg" xmlns:xlink="http://www.w3.org/1999/xlink">
<path d="M11.152,12.325C11.152,4.991 17.098,-0.955 24.432,-0.955C31.766,-0.955 37.712,4.991 37.712,12.325C37.712,19.66 31.766,25.605 24.432,25.605C17.098,25.605 11.152,19.66 11.152,12.325Z" clip-rule="evenodd" fill-rule="evenodd" fill="#FFFFFF"/>
<path d="M0.089,53.952C0.317,40.702 11.128,30.032 24.432,30.032C37.736,30.032 48.547,40.703 48.775,53.953C48.79,54.831 48.284,55.636 47.485,56.002C40.464,59.224 32.655,61.019 24.433,61.019C16.21,61.019 8.4,59.224 1.379,56.002C0.58,55.635 0.074,54.831 0.089,53.952Z" clip-rule="evenodd" fill-rule="evenodd" fill="#FFFFFF"/>
</svg>
